<mxfile host="65bd71144e">
    <diagram id="eBChcp-jgUoYE0U1CTx5" name="Page-1">
        <mxGraphModel dx="915" dy="578" grid="1" gridSize="10" guides="1" tooltips="1" connect="1" arrows="1" fold="1" page="1" pageScale="1" pageWidth="850" pageHeight="1100" math="0" shadow="0">
            <root>
                <mxCell id="0"/>
                <mxCell id="1" parent="0"/>
                <mxCell id="6" style="edgeStyle=none;html=1;exitX=0.75;exitY=1;exitDx=0;exitDy=0;entryX=0.315;entryY=-0.01;entryDx=0;entryDy=0;entryPerimeter=0;" parent="1" source="2" target="4" edge="1">
                    <mxGeometry relative="1" as="geometry"/>
                </mxCell>
                <mxCell id="2" value="Post&lt;br&gt;&lt;br&gt;body&lt;br&gt;user_id" style="rounded=1;whiteSpace=wrap;html=1;" parent="1" vertex="1">
                    <mxGeometry x="170" y="70" width="120" height="150" as="geometry"/>
                </mxCell>
                <mxCell id="5" style="edgeStyle=none;html=1;exitX=0;exitY=0.5;exitDx=0;exitDy=0;entryX=1;entryY=0.5;entryDx=0;entryDy=0;" parent="1" source="3" target="2" edge="1">
                    <mxGeometry relative="1" as="geometry"/>
                </mxCell>
                <mxCell id="3" value="Users&lt;br&gt;&lt;br&gt;username&lt;br&gt;password" style="rounded=1;whiteSpace=wrap;html=1;" parent="1" vertex="1">
                    <mxGeometry x="425" y="70" width="120" height="150" as="geometry"/>
                </mxCell>
                <mxCell id="4" value="Comment&lt;br&gt;&lt;br&gt;post_id&lt;br&gt;body&lt;br&gt;user_id&lt;br&gt;&lt;br&gt;name == find(user_id).name" style="rounded=1;whiteSpace=wrap;html=1;" parent="1" vertex="1">
                    <mxGeometry x="290" y="290" width="120" height="160" as="geometry"/>
                </mxCell>
                <mxCell id="7" value="Messages" style="swimlane;whiteSpace=wrap;html=1;startSize=30;" parent="1" vertex="1">
                    <mxGeometry x="430" y="290" width="140" height="160" as="geometry"/>
                </mxCell>
                <mxCell id="9" value="username&lt;br&gt;message/body&lt;br&gt;delete&lt;br&gt;post" style="text;html=1;align=center;verticalAlign=middle;resizable=0;points=[];autosize=1;strokeColor=none;fillColor=none;" parent="7" vertex="1">
                    <mxGeometry x="20" y="40" width="100" height="70" as="geometry"/>
                </mxCell>
                <mxCell id="10" value="Chats" style="swimlane;whiteSpace=wrap;html=1;" parent="1" vertex="1">
                    <mxGeometry x="10" y="70" width="150" height="150" as="geometry"/>
                </mxCell>
                <mxCell id="11" value="post to create message&lt;br&gt;delete&lt;br&gt;patch to edit message&lt;br&gt;get posts&lt;br&gt;get self posts" style="text;html=1;align=center;verticalAlign=middle;resizable=0;points=[];autosize=1;strokeColor=none;fillColor=none;" parent="1" vertex="1">
                    <mxGeometry x="15" y="85" width="150" height="90" as="geometry"/>
                </mxCell>
                <mxCell id="12" value="Users" style="swimlane;whiteSpace=wrap;html=1;" parent="1" vertex="1">
                    <mxGeometry x="570" y="70" width="180" height="150" as="geometry"/>
                </mxCell>
                <mxCell id="14" value="post / login&lt;br&gt;patch to change name&lt;br&gt;delete" style="text;html=1;align=center;verticalAlign=middle;resizable=0;points=[];autosize=1;strokeColor=none;fillColor=none;" parent="12" vertex="1">
                    <mxGeometry x="20" y="20" width="140" height="60" as="geometry"/>
                </mxCell>
                <mxCell id="15" value="finished controller" style="text;html=1;align=center;verticalAlign=middle;resizable=0;points=[];autosize=1;strokeColor=none;fillColor=none;" vertex="1" parent="1">
                    <mxGeometry x="590" y="145" width="120" height="30" as="geometry"/>
                </mxCell>
            </root>
        </mxGraphModel>
    </diagram>
</mxfile>